<svg width="17" height="18" viewBox="0 0 17 18" fill="none" xmlns="http://www.w3.org/2000/svg">
<path d="M5.48658 2.22888C4.72597 2.22888 4.10938 2.84548 4.10938 3.60608V7.27863C4.10938 9.68287 6.05838 11.6319 8.46261 11.6319C10.8668 11.6319 12.8158 9.68287 12.8158 7.27863V3.60608C12.8158 2.84548 12.1992 2.22888 11.4386 2.22888H5.48658Z" stroke="#FFB23E"/>
<path d="M8.46265 12.1543V12.8508" stroke="#FFB23E" stroke-linecap="round"/>
<path d="M10.5522 13.3732H6.37309C5.89224 13.3732 5.50244 13.763 5.50244 14.2438C5.50244 14.7247 5.89224 15.1145 6.37309 15.1145H10.5522C11.033 15.1145 11.4228 14.7247 11.4228 14.2438C11.4228 13.763 11.033 13.3732 10.5522 13.3732Z" stroke="#FFB23E"/>
<path d="M3.93539 3.79602C2.9737 3.79602 2.19409 4.57563 2.19409 5.53731V5.76607C2.19409 6.28856 2.40165 6.78965 2.77111 7.15911L4.28364 8.67164" stroke="#FFB23E" stroke-linecap="round" stroke-linejoin="round"/>
<path d="M12.9901 3.79602C13.9518 3.79602 14.7314 4.57563 14.7314 5.53731V5.76607C14.7314 6.28856 14.5238 6.78965 14.1544 7.15911L12.6418 8.67164" stroke="#FFB23E" stroke-linecap="round" stroke-linejoin="round"/>
</svg>
