<svg width="22" height="31" viewBox="0 0 22 31" fill="none" xmlns="http://www.w3.org/2000/svg">
<path d="M10.5867 14.8677C11.1489 14.8677 11.7056 14.7569 12.225 14.5418C12.7443 14.3267 13.2163 14.0113 13.6138 13.6138C14.0113 13.2163 14.3267 12.7443 14.5418 12.225C14.7569 11.7056 14.8677 11.1489 14.8677 10.5867C14.8677 9.45132 14.4166 8.36244 13.6138 7.5596C12.811 6.75676 11.7221 6.30574 10.5867 6.30574C9.45132 6.30574 8.36244 6.75676 7.5596 7.5596C6.75676 8.36244 6.30574 9.45132 6.30574 10.5867C6.30574 11.1489 6.41647 11.7056 6.6316 12.225C6.84674 12.7443 7.16208 13.2163 7.5596 13.6138C8.36244 14.4166 9.45132 14.8677 10.5867 14.8677ZM10.5867 0.5C16.1488 0.5 20.6734 5.01037 20.6734 10.5867C20.6734 12.4705 20.0426 14.6172 19.0629 16.804C18.0862 18.9842 16.7795 21.1677 15.4656 23.1151C14.1526 25.061 12.8387 26.7622 11.8526 27.9772C11.3598 28.5844 10.9495 29.0695 10.6628 29.4022C10.6364 29.4329 10.611 29.4623 10.5867 29.4903C10.5624 29.4623 10.537 29.4329 10.5106 29.4022C10.2239 29.0695 9.81357 28.5844 9.32076 27.9772C8.3347 26.7622 7.02077 25.061 5.70783 23.1151C4.39394 21.1677 3.08721 18.9842 2.11047 16.804C1.1308 14.6172 0.5 12.4705 0.5 10.5867C0.5 7.91154 1.5627 5.34595 3.45433 3.45433C5.34595 1.5627 7.91154 0.5 10.5867 0.5Z" fill="white" stroke="#9848FF"/>
</svg>
