<svg width="30" height="39" viewBox="0 0 30 39" fill="none" xmlns="http://www.w3.org/2000/svg">
<g filter="url(#filter0_d_28_1157)">
<path d="M14.5867 14.3677C15.0832 14.3677 15.5749 14.2699 16.0336 14.0799C16.4923 13.8898 16.9091 13.6113 17.2602 13.2602C17.6113 12.9091 17.8898 12.4923 18.0799 12.0336C18.2699 11.5749 18.3677 11.0832 18.3677 10.5867C18.3677 9.58393 17.9693 8.62222 17.2602 7.91315C16.5512 7.20409 15.5895 6.80574 14.5867 6.80574C13.5839 6.80574 12.6222 7.20409 11.9132 7.91315C11.2041 8.62222 10.8057 9.58393 10.8057 10.5867C10.8057 11.0832 10.9035 11.5749 11.0935 12.0336C11.2836 12.4923 11.5621 12.9091 11.9132 13.2602C12.6222 13.9693 13.5839 14.3677 14.5867 14.3677ZM14.5867 0C20.4245 0 25.1734 4.73377 25.1734 10.5867C25.1734 18.5267 14.5867 30.2477 14.5867 30.2477C14.5867 30.2477 4 18.5267 4 10.5867C4 7.77893 5.11538 5.08616 7.10077 3.10077C9.08616 1.11538 11.7789 0 14.5867 0Z" fill="#9747FF"/>
<path d="M14.5867 14.8677C15.1489 14.8677 15.7056 14.7569 16.225 14.5418C16.7443 14.3267 17.2163 14.0113 17.6138 13.6138C18.0113 13.2163 18.3267 12.7443 18.5418 12.225C18.7569 11.7056 18.8677 11.1489 18.8677 10.5867C18.8677 9.45132 18.4166 8.36244 17.6138 7.5596C16.811 6.75676 15.7221 6.30574 14.5867 6.30574C13.4513 6.30574 12.3624 6.75676 11.5596 7.5596C10.7568 8.36244 10.3057 9.45132 10.3057 10.5867C10.3057 11.1489 10.4165 11.7056 10.6316 12.225C10.8467 12.7443 11.1621 13.2163 11.5596 13.6138C12.3624 14.4166 13.4513 14.8677 14.5867 14.8677ZM14.5867 0.5C20.1488 0.5 24.6734 5.01037 24.6734 10.5867C24.6734 12.4705 24.0426 14.6172 23.0629 16.804C22.0862 18.9842 20.7795 21.1677 19.4656 23.1151C18.1526 25.061 16.8387 26.7622 15.8526 27.9772C15.3598 28.5844 14.9495 29.0695 14.6628 29.4022C14.6364 29.4329 14.611 29.4623 14.5867 29.4903C14.5624 29.4623 14.537 29.4329 14.5106 29.4022C14.2239 29.0695 13.8136 28.5844 13.3208 27.9772C12.3347 26.7622 11.0208 25.061 9.70783 23.1151C8.39394 21.1677 7.08721 18.9842 6.11047 16.804C5.1308 14.6172 4.5 12.4705 4.5 10.5867C4.5 7.91154 5.5627 5.34595 7.45433 3.45433C9.34595 1.5627 11.9115 0.5 14.5867 0.5Z" stroke="white"/>
</g>
<defs>
<filter id="filter0_d_28_1157" x="0" y="0" width="29.1733" height="38.2477" filterUnits="userSpaceOnUse" color-interpolation-filters="sRGB">
<feFlood flood-opacity="0" result="BackgroundImageFix"/>
<feColorMatrix in="SourceAlpha" type="matrix" values="0 0 0 0 0 0 0 0 0 0 0 0 0 0 0 0 0 0 127 0" result="hardAlpha"/>
<feOffset dy="4"/>
<feGaussianBlur stdDeviation="2"/>
<feComposite in2="hardAlpha" operator="out"/>
<feColorMatrix type="matrix" values="0 0 0 0 0 0 0 0 0 0 0 0 0 0 0 0 0 0 0.25 0"/>
<feBlend mode="normal" in2="BackgroundImageFix" result="effect1_dropShadow_28_1157"/>
<feBlend mode="normal" in="SourceGraphic" in2="effect1_dropShadow_28_1157" result="shape"/>
</filter>
</defs>
</svg>
