<svg width="19" height="19" viewBox="0 0 19 19" fill="none" xmlns="http://www.w3.org/2000/svg">
<path d="M16.1292 9.14929C16.1292 5.36865 13.0643 2.30383 9.28369 2.30383C5.50305 2.30383 2.43823 5.36865 2.43823 9.14929C2.43823 12.9299 5.50305 15.9948 9.28369 15.9948C13.0643 15.9948 16.1292 12.9299 16.1292 9.14929Z" stroke="#0D99FF" stroke-width="1.0625"/>
<path d="M8.37396 7.76441L10.391 7.10941C10.9659 6.92268 11.5101 7.46685 11.3234 8.04185L10.6684 10.0588C10.5952 10.2842 10.4185 10.4609 10.1931 10.5341L8.17615 11.1891C7.60113 11.3759 7.05696 10.8317 7.24369 10.2567L7.8987 8.23967C7.97189 8.01432 8.14862 7.8376 8.37396 7.76441Z" stroke="#0D99FF" stroke-width="1.0625"/>
</svg>
