<svg width="25" height="24" viewBox="0 0 25 24" fill="none" xmlns="http://www.w3.org/2000/svg">
<path d="M9.37492 22C9.95022 22 10.4166 21.5523 10.4166 21C10.4166 20.4477 9.95022 20 9.37492 20C8.79962 20 8.33325 20.4477 8.33325 21C8.33325 21.5523 8.79962 22 9.37492 22Z" stroke="#9848ff" stroke-width="2" stroke-linecap="round" stroke-linejoin="round"/>
<path d="M20.8334 22C21.4087 22 21.8751 21.5523 21.8751 21C21.8751 20.4477 21.4087 20 20.8334 20C20.2581 20 19.7917 20.4477 19.7917 21C19.7917 21.5523 20.2581 22 20.8334 22Z" stroke="#9848ff" stroke-width="2" stroke-linecap="round" stroke-linejoin="round"/>
<path d="M1.04175 1H5.20841L8.00008 14.39C8.09534 14.8504 8.35624 15.264 8.73711 15.5583C9.11798 15.8526 9.59456 16.009 10.0834 16H20.2084C20.6973 16.009 21.1738 15.8526 21.5547 15.5583C21.9356 15.264 22.1965 14.8504 22.2917 14.39L23.9584 6H6.25008" stroke="#9848ff" stroke-width="2" stroke-linecap="round" stroke-linejoin="round"/>
</svg>
